<svg width="16" height="16" viewBox="0 0 16 16" fill="none" xmlns="http://www.w3.org/2000/svg">
<path fill-rule="evenodd" clip-rule="evenodd" d="M7.85075 15.9963C12.056 15.9963 15.4651 12.6015 15.4651 8.41381C15.4651 4.2261 12.056 0.831299 7.85075 0.831299C3.98059 0.831299 0.784803 3.70661 0.300049 7.4291C0.752107 7.56145 1.64869 7.88919 1.71034 7.91709L3.64151 8.78819C4.14019 8.4743 4.73666 8.34777 5.32334 8.43294L7.0785 6.29898C7.10051 4.5957 8.49388 3.22335 10.2075 3.22092C11.8086 3.23795 13.136 4.45457 13.2876 6.03862C13.4489 7.75163 12.1875 9.26997 10.4666 9.433L7.54296 11.5134C7.36451 12.4259 6.70938 13.1729 5.82447 13.4698C4.46776 13.9272 2.99372 13.2021 2.53659 11.8492L1.51967 11.5134C1.48363 11.502 1.14853 11.3648 0.767599 11.2017C1.88312 14.0099 4.63399 15.9963 7.85075 15.9963ZM11.7722 6.33542C11.7722 7.19549 11.0717 7.8927 10.2077 7.8927C9.34365 7.8927 8.6432 7.19549 8.6432 6.33542C8.6432 5.47536 9.34365 4.77814 10.2077 4.77814C11.0717 4.77814 11.7722 5.47536 11.7722 6.33542ZM11.2516 6.33544C11.2516 6.90926 10.7843 7.37444 10.2078 7.37444C9.63134 7.37444 9.16401 6.90926 9.16401 6.33544C9.16401 5.76161 9.63134 5.29644 10.2078 5.29644C10.7843 5.29644 11.2516 5.76161 11.2516 6.33544ZM4.31424 12.4089C4.52447 12.5111 4.7567 12.5646 4.99137 12.5646C5.16982 12.5646 5.34338 12.5354 5.5145 12.4794C5.90806 12.3432 6.2283 12.0585 6.40919 11.6862C6.78565 10.91 6.45808 9.98047 5.68073 9.60575C5.54872 9.54249 5.39472 9.59602 5.33116 9.72498C5.2676 9.85638 5.32138 10.0097 5.45094 10.0729C5.46805 10.0802 5.48516 10.0875 5.50227 10.0973C6.01562 10.3601 6.21363 10.9854 5.94962 11.4964C5.68561 12.0074 5.05493 12.2045 4.54402 11.9417C4.41202 11.8784 4.25802 11.9319 4.19446 12.0609C4.1309 12.1923 4.18468 12.3456 4.31424 12.4089Z" fill="#FFB548"/>
</svg>
